<svg width="17" height="14" viewBox="0 0 17 14" fill="none" xmlns="http://www.w3.org/2000/svg">
<path fill-rule="evenodd" clip-rule="evenodd" d="M5.00929 0.163818C3.81287 0.163818 2.73097 0.46284 1.9457 1.19202C1.15298 1.92812 0.749512 3.02124 0.749512 4.42359V9.6094C0.749512 11.0118 1.15298 12.1049 1.9457 12.841C2.73097 13.5702 3.81287 13.8692 5.00929 13.8692H12.4176C13.614 13.8692 14.6959 13.5702 15.4811 12.841C16.2739 12.1049 16.6774 11.0118 16.6774 9.6094V4.42359C16.6774 3.02124 16.2739 1.92812 15.4811 1.19202C14.6959 0.46284 13.614 0.163818 12.4176 0.163818H5.00929ZM14.0685 4.32158C14.3113 4.13396 14.356 3.78501 14.1684 3.5422C13.9808 3.29937 13.6319 3.25464 13.389 3.44227L9.27958 6.61764C8.94613 6.87537 8.48067 6.87537 8.14715 6.61764L4.03776 3.44227C3.79494 3.25464 3.446 3.29937 3.25837 3.5422C3.07074 3.78501 3.11548 4.13396 3.3583 4.32158L7.46773 7.497C8.20145 8.06388 9.22535 8.06388 9.95907 7.497L14.0685 4.32158Z" fill="#E0EEF9"/>
</svg>
