<svg width="37" height="37" viewBox="0 0 37 37" fill="none" xmlns="http://www.w3.org/2000/svg">
<g clip-path="url(#clip0_59_485)">
<path d="M18.3156 0.899902C8.49494 0.899902 0.535645 8.8592 0.535645 18.6798C0.535645 28.5005 8.49494 36.4598 18.3156 36.4598C28.1362 36.4598 36.0955 28.5005 36.0955 18.6798C36.0955 8.8592 28.1362 0.899902 18.3156 0.899902ZM29.4141 29.7714C27.9695 31.2161 26.2957 32.3481 24.4274 33.133C22.4966 33.9525 20.4408 34.3623 18.3156 34.3623C16.1973 34.3623 14.1415 33.9456 12.2037 33.133C10.3354 32.3412 8.65468 31.2091 7.21701 29.7714C5.77239 28.3268 4.64031 26.653 3.85549 24.7847C3.03595 22.8539 2.61923 20.7981 2.61923 18.6798C2.61923 16.5615 3.03595 14.5057 3.84854 12.568C4.64031 10.6997 5.77239 9.01894 7.21006 7.58126C8.66163 6.13665 10.3354 5.00456 12.2037 4.2128C14.1415 3.4002 16.1973 2.98349 18.3156 2.98349C20.4339 2.98349 22.4897 3.4002 24.4274 4.2128C26.2957 5.00456 27.9765 6.13665 29.4141 7.57432C30.8588 9.01894 31.9908 10.6928 32.7757 12.561C33.5952 14.4918 34.005 16.5476 34.005 18.6729C34.005 20.7912 33.5882 22.847 32.7757 24.7847C31.9839 26.653 30.8518 28.3338 29.4141 29.7714Z" fill="#E0EEF9"/>
<path d="M20.6626 12.6164C21.378 12.6164 22.142 12.8386 22.142 12.8386L22.6004 10.1161C22.6004 10.1161 21.628 9.78271 19.3083 9.78271C17.8845 9.78271 17.058 10.3244 16.4538 11.1232C15.8843 11.8802 15.8634 13.0956 15.8634 13.8804V15.6654H14.0229V18.3254H15.8634V27.5626H19.3083V18.3254H22.0378L22.2392 15.6654H19.3083V13.5887C19.3083 12.8734 19.9473 12.6164 20.6626 12.6164Z" fill="#E0EEF9"/>
</g>
<defs>
<clipPath id="clip0_59_485">
<rect width="35.5599" height="35.5599" fill="white" transform="translate(0.535645 0.899902)"/>
</clipPath>
</defs>
</svg>
