<svg width="36" height="37" viewBox="0 0 36 37" fill="none" xmlns="http://www.w3.org/2000/svg">
<g clip-path="url(#clip0_59_495)">
<path d="M18.1071 0.899902C8.28644 0.899902 0.327148 8.8592 0.327148 18.6798C0.327148 28.5005 8.28644 36.4598 18.1071 36.4598C27.9277 36.4598 35.887 28.5005 35.887 18.6798C35.887 8.8592 27.9277 0.899902 18.1071 0.899902ZM29.2056 29.7714C27.761 31.2161 26.0872 32.3481 24.2189 33.133C22.2881 33.9525 20.2323 34.3623 18.1071 34.3623C15.9888 34.3623 13.933 33.9456 11.9952 33.133C10.1269 32.3412 8.44619 31.2091 7.00851 29.7714C5.56389 28.3268 4.43181 26.653 3.64699 24.7847C2.82745 22.8539 2.41073 20.7981 2.41073 18.6798C2.41073 16.5615 2.82745 14.5057 3.64005 12.568C4.43181 10.6997 5.56389 9.01894 7.00157 7.58126C8.45313 6.13665 10.1269 5.00456 11.9952 4.2128C13.933 3.4002 15.9888 2.98349 18.1071 2.98349C20.2254 2.98349 22.2812 3.4002 24.2189 4.2128C26.0872 5.00456 27.768 6.13665 29.2056 7.57432C30.6503 9.01894 31.7823 10.6928 32.5672 12.561C33.3867 14.4918 33.7965 16.5476 33.7965 18.6729C33.7965 20.7912 33.3798 22.847 32.5672 24.7847C31.7754 26.653 30.6433 28.3338 29.2056 29.7714Z" fill="#E0EEF9"/>
<path d="M23.5661 9.78979H12.662C10.766 9.78979 9.22412 11.3316 9.22412 13.2277V16.8601V24.1388C9.22412 26.0348 10.766 27.5767 12.662 27.5767H23.5661C25.4622 27.5767 27.004 26.0348 27.004 24.1388V16.8531V13.2208C26.9971 11.3316 25.4552 9.78979 23.5661 9.78979ZM24.5524 11.8387H24.9482V12.2276V14.8529L21.9409 14.8599L21.934 11.8456L24.5524 11.8387ZM15.5721 16.8531C16.1416 16.0683 17.0653 15.5474 18.1071 15.5474C19.1489 15.5474 20.0727 16.0614 20.6422 16.8531C21.0172 17.3671 21.2325 17.9991 21.2325 18.6798C21.2325 20.4022 19.8296 21.8121 18.1002 21.8121C16.3708 21.8121 14.9818 20.4022 14.9818 18.6798C14.9818 17.9991 15.204 17.3671 15.5721 16.8531ZM25.2677 24.1318C25.2677 25.0694 24.5037 25.8334 23.5661 25.8334H12.662C11.7244 25.8334 10.9604 25.0694 10.9604 24.1318V16.8531H13.6135C13.3843 17.4157 13.2524 18.0338 13.2524 18.6798C13.2524 21.3606 15.4332 23.5415 18.1141 23.5415C20.795 23.5415 22.9758 21.3606 22.9758 18.6798C22.9758 18.0338 22.8438 17.4157 22.6146 16.8531H25.2677V24.1318Z" fill="#E0EEF9"/>
</g>
<defs>
<clipPath id="clip0_59_495">
<rect width="35.5599" height="35.5599" fill="white" transform="translate(0.327148 0.899902)"/>
</clipPath>
</defs>
</svg>
