<svg width="15" height="14" viewBox="0 0 15 14" fill="none" xmlns="http://www.w3.org/2000/svg">
<path d="M10.0862 8.57305L9.74874 8.90849C9.74874 8.90849 8.94672 9.706 6.75757 7.52922C4.56843 5.35252 5.37044 4.55506 5.37044 4.55506L5.58291 4.34378C6.10638 3.82332 6.15572 2.98771 5.69899 2.37769L4.76485 1.12984C4.19961 0.374814 3.10739 0.275076 2.45953 0.919257L1.29672 2.07546C0.975483 2.39488 0.760212 2.80894 0.786319 3.26827C0.853105 4.44338 1.38478 6.97174 4.35154 9.92165C7.49766 13.0499 10.4496 13.1742 11.6568 13.0617C12.0386 13.0261 12.3707 12.8316 12.6383 12.5655L13.6907 11.5192C14.4011 10.8128 14.2008 9.60184 13.2918 9.10778L11.8765 8.33835C11.2797 8.01394 10.5526 8.10921 10.0862 8.57305Z" fill="#E0EEF9"/>
</svg>
