<svg width="36" height="37" viewBox="0 0 36 37" fill="none" xmlns="http://www.w3.org/2000/svg">
<g clip-path="url(#clip0_59_499)">
<path d="M18.0021 0.900146C8.18146 0.900146 0.222168 8.85944 0.222168 18.6801C0.222168 28.5007 8.18146 36.46 18.0021 36.46C27.8227 36.46 35.782 28.5007 35.782 18.6801C35.782 8.85944 27.8227 0.900146 18.0021 0.900146ZM29.1007 29.7717C27.656 31.2163 25.9822 32.3484 24.1139 33.1332C22.1832 33.9528 20.1274 34.3625 18.0021 34.3625C15.8838 34.3625 13.828 33.9458 11.8902 33.1332C10.022 32.3414 8.3412 31.2094 6.90353 29.7717C5.45891 28.3271 4.32683 26.6533 3.54201 24.785C2.72247 22.8542 2.30575 20.7984 2.30575 18.6801C2.30575 16.5618 2.72247 14.506 3.53507 12.5682C4.32683 10.6999 5.45891 9.01918 6.89659 7.58151C8.34815 6.13689 10.022 5.00481 11.8902 4.21305C13.828 3.40045 15.8838 2.98373 18.0021 2.98373C20.1204 2.98373 22.1762 3.40045 24.1139 4.21305C25.9822 5.00481 27.663 6.13689 29.1007 7.57456C30.5453 9.01918 31.6774 10.693 32.4622 12.5613C33.2817 14.4921 33.6915 16.5479 33.6915 18.6731C33.6915 20.7914 33.2748 22.8472 32.4622 24.785C31.6704 26.6533 30.5383 28.334 29.1007 29.7717Z" fill="#E0EEF9"/>
<path d="M23.8289 12.4431H12.1747C12.1747 12.4431 9.11182 12.4431 9.11182 15.506V21.8609C9.11182 21.8609 9.11182 24.9238 12.1747 24.9238H23.8289C23.8289 24.9238 26.8917 24.9238 26.8917 21.8609V15.506C26.8917 15.506 26.8917 12.4431 23.8289 12.4431ZM15.6334 22.104V15.2629L21.4536 18.6869L15.6334 22.104Z" fill="#E0EEF9"/>
</g>
<defs>
<clipPath id="clip0_59_499">
<rect width="35.5599" height="35.5599" fill="white" transform="translate(0.222656 0.899902)"/>
</clipPath>
</defs>
</svg>
